<?xml version="1.0" ?>
<!-- Uploaded to: SVG Repo, www.svgrepo.com, Generator: SVG Repo Mixer Tools -->
<svg width="800px" height="800px" viewBox="0 0 512 512" baseProfile="tiny" overflow="visible" version="1.1" xml:space="preserve" xmlns="http://www.w3.org/2000/svg" xmlns:xlink="http://www.w3.org/1999/xlink">
<g id="Layer_1"/>
<g id="Layer_2"/>
<g id="Layer_3">
<g>
<path d="M51.374,342.042c4.57,54.023,45.364,94.56,91.116,90.542s79.136-51.071,74.566-105.094    c-1.877-22.183-9.861-42.089-21.788-57.572c-22.571-29.298-35.125-62.744-38.049-97.303l-2.031-24.012    c-0.233-2.758-2.663-4.802-5.42-4.559l-62.938,5.528c-2.745,0.241-4.777,2.657-4.545,5.402l2.034,24.044    c2.924,34.559-3.829,69.701-21.147,102.502C54.021,298.854,49.497,319.86,51.374,342.042z" fill="#D97C41"/>
<path d="M88.858,63.723l7.194,85.038l44.526-3.911l-7.194-85.038c11.607-3.818,19.529-15.181,18.459-27.83    c-1.249-14.764-14.272-25.678-29.088-24.377c-6.04,0.53-11.444,3.01-15.644,6.76c-4.768-2.963-10.509-4.463-16.548-3.933    c-14.816,1.301-25.814,14.325-24.565,29.09C67.067,52.171,76.781,61.986,88.858,63.723z" fill="#F2C7AE"/>
<path d="M237.75,305.985c-20.378,50.266-2.325,104.791,40.322,121.787c42.647,16.995,93.74-9.975,114.118-60.241    c8.367-20.639,10.254-41.996,6.619-61.178c-6.878-36.299-2.941-71.793,10.095-103.948l9.053-22.331    c1.042-2.57-0.207-5.497-2.783-6.523l-58.664-23.378c-2.554-1.018-5.452,0.218-6.485,2.766l-9.076,22.386    c-13.036,32.155-34.971,60.477-65.274,81.959C259.664,268.635,246.118,285.345,237.75,305.985z" fill="#D97C41"/>
<path d="M217.056,327.49c-1.877-22.182-9.861-42.089-21.788-57.572c-22.571-29.298-35.125-62.744-38.049-97.303    l-2.031-24.012c-0.233-2.758-2.663-4.802-5.42-4.559l-15.551,1.366c0.86,0.814,1.449,1.921,1.556,3.194l2.031,24.012    c2.924,34.559,15.478,68.005,38.049,97.303c11.927,15.482,19.912,35.389,21.788,57.572c4.454,52.649-27.143,98.67-71.102,104.698    c5.214,0.717,10.546,0.871,15.95,0.397C188.241,428.566,221.626,381.513,217.056,327.49z" fill="#C76D33"/>
<path d="M415.175,173.55l-58.664-23.378c-2.555-1.018-5.451,0.218-6.485,2.766l-0.833,2.054l46.567,18.557    c2.576,1.027,3.825,3.953,2.783,6.523l-9.053,22.331c-13.036,32.155-16.973,67.649-10.095,103.948    c3.635,19.182,1.748,40.538-6.619,61.178c-14.747,36.375-45.579,60.546-77.655,64.689c38.416,5.102,79.351-20.985,97.069-64.689    c8.367-20.64,10.254-41.996,6.619-61.178c-6.878-36.299-2.941-71.793,10.095-103.948l9.053-22.331    C418.999,177.503,417.751,174.576,415.175,173.55z" fill="#C76D33"/>
<g>
<path d="M419.261,374.281h-6.309H42.346c-0.029-0.813-0.081-1.622-0.081-2.44v9.707     c0,43.694,35.421,79.116,79.116,79.116h218.845c43.694,0,79.116-35.421,79.116-79.116v-7.266H419.261z" fill="#FD7A6E"/>
</g>
<path d="M397.195,74.479l-32.077,79.123l41.505,16.54L438.7,91.018c12.086,1.815,24.3-4.762,29.071-16.531    c5.569-13.737-1.112-29.335-14.922-34.839c-5.63-2.244-11.575-2.462-17.021-1.005c-2.914-4.789-7.357-8.71-12.987-10.954    c-13.811-5.504-29.521,1.171-35.09,14.909C382.979,54.367,387.204,67.495,397.195,74.479z" fill="#F2C7AE"/>
<g>
<path d="M151.843,31.982c-1.249-14.765-14.272-25.678-29.088-24.377c-0.886,0.078-1.754,0.21-2.611,0.37     c11.533,2.181,20.664,11.767,21.699,24.008c1.07,12.648-6.852,24.012-18.459,27.83l7.194,85.038l-34.6,3.039l0.074,0.872     l44.526-3.911l-7.194-85.038C144.991,55.995,152.913,44.631,151.843,31.982z" fill="#EFB899"/>
<path d="M97.111,14.366c1.173-1.048,2.45-1.984,3.799-2.819c-3.249-1.01-6.742-1.431-10.347-1.114     c-0.906,0.08-1.798,0.204-2.674,0.37C91.203,11.422,94.326,12.635,97.111,14.366z" fill="#EFB899"/>
</g>
<g>
<path d="M412.841,27.69c5.63,2.244,10.074,6.165,12.987,10.954c3.05-0.816,6.257-1.085,9.477-0.788     c-2.911-4.425-7.151-8.048-12.464-10.165c-4.945-1.971-10.132-2.372-15.012-1.455C409.513,26.553,411.191,27.032,412.841,27.69z" fill="#EFB899"/>
<path d="M452.849,39.648c-4.962-1.977-10.168-2.378-15.062-1.448c1.701,0.318,3.396,0.784,5.062,1.448     c13.811,5.504,20.492,21.102,14.922,34.839C453,86.256,440.786,92.833,428.7,91.018l-30.686,75.692l8.609,3.431L438.7,91.018     c12.086,1.815,24.3-4.762,29.071-16.531C473.34,60.75,466.659,45.152,452.849,39.648z" fill="#EFB899"/>
</g>
<path d="M311.997,504.5H149.609c-2.761,0-5-2.239-5-5v-38.837h172.388V499.5    C316.997,502.261,314.759,504.5,311.997,504.5z" fill="#FFAAA1"/>
<path d="M306.997,460.663V499.5c0,2.761-2.239,5-5,5h10c2.761,0,5-2.239,5-5v-38.837H306.997z" fill="#FF938A"/>
<path d="M42.265,371.841c0,0.818,0.052,1.627,0.081,2.44h376.915c0.029-0.813,0.081-1.622,0.081-2.44v-46.066    c0-2.761-2.239-5-5-5H47.265c-2.761,0-5,2.239-5,5V371.841z" fill="#FFAAA1"/>
<path d="M414.341,320.775h-9.707c2.761,0,5,2.239,5,5v46.066c0,0.818-0.052,1.627-0.081,2.44h9.707    c0.029-0.813,0.081-1.622,0.081-2.44v-46.066C419.341,323.013,417.103,320.775,414.341,320.775z" fill="#FF938A"/>
<path d="M419.261,374.281h-8.237h-1.682v4.879c0,45.013-36.49,81.503-81.504,81.503h10    c45.013,0,81.504-36.49,81.504-81.503v-4.879H419.261z" fill="#FB695B"/>
</g>
</g>
<g id="Layer_4"/>
<g id="Layer_5"/>
<g id="Layer_6"/>
<g id="Layer_7"/>
<g id="Layer_8"/>
<g id="Layer_9"/>
<g id="Layer_10"/>
<g id="Layer_11"/>
<g id="Layer_12"/>
<g id="Layer_13"/>
<g id="Layer_14"/>
<g id="Layer_15"/>
<g id="Layer_16"/>
<g id="Layer_17"/>
<g id="Layer_18"/>
<g id="Layer_19"/>
<g id="Layer_20"/>
<g id="Layer_21"/>
<g id="Layer_22"/>
<g id="Layer_23"/>
<g id="Layer_24"/>
<g id="Layer_25"/>
<g id="Layer_26"/>
<g id="Layer_27"/>
<g id="Layer_28"/>
<g id="Layer_29"/>
<g id="Layer_30"/>
<g id="Layer_31"/>
<g id="Layer_32"/>
<g id="Layer_33"/>
<g id="Layer_34"/>
<g id="Layer_35"/>
<g id="Layer_36"/>
<g id="Layer_37"/>
<g id="Layer_38"/>
<g id="Layer_39"/>
<g id="Layer_40"/>
<g id="Layer_41"/>
<g id="Layer_42"/>
<g id="Layer_43"/>
<g id="Layer_44"/>
<g id="Layer_45"/>
<g id="Layer_46"/>
<g id="Layer_47"/>
<g id="Layer_48"/>
<g id="Layer_49"/>
<g id="Layer_50">
<g>
<g>
<path d="M216.275,328.271c-3.673,0-6.881-2.7-7.416-6.441c-2.517-17.631-9.272-34-19.538-47.334     c-22.797-29.594-36.484-64.604-39.58-101.244l-1.819-21.52l-11.468,1.011c-0.093,0.01-0.185,0.019-0.276,0.026l-46.219,4.055     l1.829,21.563c3.097,36.653-4.507,73.526-21.991,106.636c-5.864,11.108-9.504,23.388-10.82,36.497     c-0.414,4.121-4.08,7.131-8.211,6.713c-4.122-0.414-7.127-4.09-6.713-8.211c1.51-15.043,5.708-29.175,12.479-42.002     c16.142-30.568,23.164-64.582,20.31-98.368l-2.04-24.047c-0.575-6.852,4.526-12.908,11.371-13.506l48.688-4.271     c0.089-0.01,0.178-0.018,0.267-0.025l13.98-1.233c3.329-0.289,6.579,0.736,9.141,2.893c2.554,2.15,4.12,5.165,4.409,8.487     l2.032,24.04c2.854,33.764,15.481,66.045,36.518,93.355c11.841,15.382,19.623,34.181,22.503,54.367     c0.585,4.101-2.265,7.899-6.365,8.484C216.985,328.246,216.628,328.271,216.275,328.271z"/>
</g>
<g>
<path d="M100.583,155.843c-2.937,0-5.751-1.023-8.025-2.937c-2.561-2.155-4.126-5.178-4.408-8.512l-6.316-74.655     c-12.88-4.297-22.165-15.982-23.316-29.584C56.924,21.307,71.002,4.622,89.901,2.961c5.625-0.496,11.277,0.397,16.437,2.583     c4.712-3.052,10.129-4.916,15.755-5.41c9.184-0.811,18.118,2.009,25.154,7.928c7.007,5.895,11.292,14.166,12.063,23.288     c1.151,13.602-6.036,26.722-18.006,33.185l6.321,74.717c0.58,6.847-4.518,12.906-11.363,13.506l-34.563,3.036     C101.326,155.827,100.954,155.843,100.583,155.843z M96.638,66.782l6.248,73.85l29.583-2.599l-6.253-73.919     c-0.436-5.15,2.422-10.11,7.109-12.345c7.278-3.471,11.715-11.169,11.04-19.155c-0.434-5.121-2.839-9.764-6.773-13.074     c-3.964-3.334-9.003-4.918-14.186-4.464c-3.459,0.304-6.775,1.519-9.588,3.515c-3.684,2.613-8.507,3.033-12.589,1.097     c-3.099-1.471-6.562-2.089-10.015-1.785C80.527,18.843,72.565,28.257,73.465,38.89c0.674,7.958,6.312,14.75,14.032,16.9     C92.527,57.191,96.2,61.609,96.638,66.782L96.638,66.782z M81.691,68.046c0,0.004,0,0.007,0.001,0.011L81.691,68.046     L81.691,68.046L81.691,68.046z"/>
</g>
<g>
<path d="M232.88,328.272c-0.614,0-1.237-0.076-1.859-0.235c-4.014-1.024-6.437-5.107-5.413-9.121     c1.358-5.324,3.104-10.626,5.188-15.758c8.669-21.367,22.689-39.348,40.543-51.998c28.242-20.021,49.909-47.221,62.656-78.659     l9.08-22.381c2.568-6.358,9.844-9.463,16.215-6.914l58.653,23.377c3.119,1.246,5.56,3.629,6.875,6.712     c1.313,3.079,1.345,6.484,0.088,9.587l-9.062,22.336c-12.735,31.432-16.079,65.92-9.671,99.734     c0.947,4.987,1.547,10.196,1.784,15.48c0.186,4.138-3.019,7.643-7.157,7.829c-4.143,0.174-7.643-3.019-7.829-7.157     c-0.205-4.573-0.722-9.067-1.536-13.357c-6.946-36.652-3.313-74.054,10.507-108.165l8.113-19.997l-54.015-21.528l-8.147,20.081     c-13.824,34.095-37.298,63.577-67.882,85.259c-15.514,10.992-27.727,26.691-35.318,45.401c-1.831,4.507-3.362,9.157-4.553,13.824     C239.276,326.015,236.226,328.272,232.88,328.272z M356.978,155.75l-0.002,0.006C356.977,155.754,356.978,155.752,356.978,155.75     z"/>
</g>
<g>
<path d="M403.824,176.154c-1.535,0-3.093-0.284-4.6-0.885l-32.215-12.838c-3.115-1.242-5.555-3.624-6.871-6.708     c-1.315-3.084-1.346-6.493-0.086-9.601l28.153-69.444c-9.547-9.637-12.541-24.243-7.411-36.898     c7.105-17.524,27.21-26.074,44.817-19.058c5.244,2.09,9.885,5.428,13.502,9.699c5.586-0.604,11.261,0.17,16.506,2.26     c8.562,3.412,15.262,9.944,18.866,18.392c3.592,8.421,3.674,17.737,0.23,26.232c-5.13,12.654-17.48,21.124-31.085,21.499     l-28.195,69.55C413.471,173.2,408.769,176.154,403.824,176.154z M374.898,149.428l27.57,10.987l27.896-68.81     c1.938-4.776,6.723-7.891,11.894-7.792c8.092,0.153,15.541-4.698,18.558-12.143c1.933-4.766,1.888-9.99-0.126-14.71     c-2.025-4.748-5.797-8.421-10.622-10.343c-3.247-1.294-6.78-1.697-10.22-1.166c-4.413,0.68-8.889-1.123-11.673-4.709     c-2.096-2.699-4.902-4.803-8.115-6.083c-9.968-3.972-21.348,0.853-25.363,10.759c-2.999,7.396-1.048,15.983,4.854,21.367     c3.865,3.524,5.15,9.132,3.196,13.953v0L374.898,149.428z M395.795,77.918h0.01H395.795z M388.845,75.101     c-0.001,0.002-0.002,0.004-0.003,0.007L388.845,75.101z"/>
</g>
<g>
<path d="M337.832,468.163H123.763c-49.077,0-89.003-39.927-89.003-89.003v-58.385c0-4.142,3.358-7.5,7.5-7.5h377.076     c4.142,0,7.5,3.358,7.5,7.5v58.385C426.836,428.236,386.909,468.163,337.832,468.163z M49.76,328.274v50.885     c0,40.806,33.198,74.003,74.003,74.003h214.069c40.806,0,74.003-33.198,74.003-74.003v-50.885H49.76z"/>
</g>
<g>
<path d="M311.992,512H149.603c-6.893,0-12.5-5.607-12.5-12.5v-33.837c0-6.893,5.607-12.5,12.5-12.5h162.388     c6.893,0,12.5,5.607,12.5,12.5V499.5C324.492,506.393,318.884,512,311.992,512z M152.103,497h157.388v-28.837H152.103V497z"/>
</g>
<g>
<path d="M419.255,381.781H42.34c-4.039,0-7.352-3.198-7.495-7.234l-0.028-0.683c-0.03-0.672-0.057-1.345-0.057-2.022v-46.066     c0-6.893,5.607-12.5,12.5-12.5h367.076c6.893,0,12.5,5.607,12.5,12.5v46.066c0,0.678-0.027,1.35-0.057,2.022l-0.028,0.683     C426.607,378.583,423.294,381.781,419.255,381.781z M49.76,366.781h362.076v-38.506H49.76V366.781z"/>
</g>
</g>
</g>
</svg>