<?xml version="1.0" encoding="iso-8859-1"?>
<!-- Uploaded to: SVG Repo, www.svgrepo.com, Generator: SVG Repo Mixer Tools -->
<svg fill="#000000" height="800px" width="800px" version="1.1" id="Layer_1" xmlns="http://www.w3.org/2000/svg" xmlns:xlink="http://www.w3.org/1999/xlink" 
	 viewBox="0 0 512.001 512.001" xml:space="preserve">
<g>
	<g>
		<path d="M358.742,203.481c-26.132-29.197-63.58-45.942-102.741-45.942c-10.875,0-19.692,8.817-19.692,19.692
			s8.817,19.692,19.692,19.692c27.974,0,54.725,11.964,73.395,32.824c3.89,4.345,9.272,6.559,14.68,6.559
			c4.676,0,9.37-1.655,13.127-5.019C365.306,224.034,365.995,211.585,358.742,203.481z"/>
	</g>
</g>
<g>
	<g>
		<path d="M429.451,315.077h23.473h39.385c10.875,0,19.692-8.817,19.692-19.692c0-10.875-8.817-19.692-19.692-19.692H471.71
			c-8.368-92.415-75.015-168.256-162.802-190.376c3.941-7.911,6.169-16.817,6.169-26.239C315.078,26.502,288.577,0,256.001,0
			c-32.576,0-59.077,26.502-59.077,59.077c0,9.422,2.228,18.328,6.168,26.239c-87.787,22.12-154.434,97.961-162.8,190.376H19.693
			c-10.875,0-19.692,8.817-19.692,19.692c0,10.875,8.817,19.692,19.692,19.692h12.564c-8.385,21.935-3.768,47.743,13.88,65.392
			l96.286,96.285c3.693,3.693,8.707,5.769,13.929,5.769l207.991,0.003l23.708,23.708c3.693,3.693,8.701,5.769,13.925,5.769
			c5.222,0,10.232-2.076,13.924-5.769l88.429-88.429c7.691-7.69,7.691-20.158,0-27.849L429.451,315.077z M256.001,39.385
			c10.858,0,19.692,8.834,19.692,19.692s-8.834,19.692-19.692,19.692s-19.692-8.834-19.692-19.692S245.142,39.385,256.001,39.385z
			 M256.001,118.154c91.069,0,166.315,69.048,176.144,157.538H89.59c-0.018,0-0.034-0.001-0.052-0.001s-0.034,0.001-0.052,0.001
			h-9.628C89.685,187.202,164.932,118.154,256.001,118.154z M178.354,339.084l-24.008-24.008h28.363
			c-2.809,7.028-4.37,14.684-4.37,22.701C178.341,338.215,178.346,338.65,178.354,339.084z M401.976,464.459l-15.552-15.55
			c-3.693-3.693-8.701-5.767-13.925-5.767l-207.998-0.005l-90.515-90.514c-8.574-8.575-8.574-22.528-0.001-31.102
			c4.149-4.147,9.661-6.434,15.525-6.441h0.054c5.864,0.007,11.377,2.294,15.523,6.438l71.87,71.872
			c3.693,3.693,8.701,5.768,13.924,5.768h98.252c10.875,0,19.692-8.816,19.692-19.692c0-10.875-8.817-19.692-19.692-19.692
			l-49.417-0.001c-5.875,0-11.397-2.287-15.55-6.441c-4.155-4.154-6.442-9.677-6.442-15.55c0-12.127,9.867-21.992,21.994-21.992
			H374.46l88.094,88.093L401.976,464.459z"/>
	</g>
</g>
</svg>